<svg width="20" height="21" viewBox="0 0 20 21" fill="none" xmlns="http://www.w3.org/2000/svg">
<path d="M18.4117 5.41977C17.1983 2.96977 14.8533 1.16144 12.135 0.566435C9.28833 -0.0635648 6.37167 0.613102 4.14333 2.40977C1.90333 4.19477 0.631668 6.86643 0.631668 9.72477C0.631668 12.7464 2.44 15.9081 5.17 17.7398V18.7081C5.15833 19.0348 5.14667 19.5364 5.54333 19.9448C5.95167 20.3648 6.55833 20.4114 7.03667 20.4114H13.0217C13.6517 20.4114 14.13 20.2364 14.4567 19.9098C14.9 19.4548 14.8883 18.8714 14.8767 18.5564V17.7398C18.4933 15.3014 20.7683 10.1564 18.4117 5.41977ZM12.0067 11.5564L10.7583 13.7264C10.595 14.0064 10.3033 14.1698 10 14.1698C9.84833 14.1698 9.69667 14.1348 9.56833 14.0531C9.14833 13.8081 9.00833 13.2714 9.24167 12.8631L10.2333 11.1364H9.25333C8.67 11.1364 8.19167 10.8798 7.935 10.4481C7.67833 10.0048 7.70167 9.4681 7.99333 8.95477L9.24167 6.78477C9.48667 6.36477 10.0233 6.22477 10.4317 6.4581C10.8517 6.7031 10.9917 7.23977 10.7583 7.6481L9.76667 9.37477H10.7467C11.33 9.37477 11.8083 9.63143 12.065 10.0631C12.3217 10.5064 12.2983 11.0548 12.0067 11.5564Z" fill="white"/>
</svg>
